# xmcd
#
# Track frame offsets: 
#        150
#        450
#        13019
#        29602
#        47156
#        67993
#        92099
#        111904
#        130817
#        151438
#        170531
#        183037
#        201511
#
# Disc length: 2867 seconds
#
# Revision: 0
# Processed by: cddbd v1.5.2PL0 Copyright (c) Steve Scherf et al.
# Submitted via: ExactAudioCopy v1.3
#
DISCID=a80b310d
DTITLE=Lefty Dizz - Shake For Me
DYEAR=1979
DGENRE=Chicago Blues
TTITLE0=R.M. Blues
TTITLE1=Blue Shadows Take 2
TTITLE2=Take Out Some Insurance
TTITLE3=Cummins Prison Farm
TTITLE4=I Found Out
TTITLE5=Shake For Me
TTITLE6=Funny Acting Woman
TTITLE7=The Things I Used To Do
TTITLE8=Blue Shadows Take 1
TTITLE9=Moose Boogie
TTITLE10=One Eyed Woman
TTITLE11=All Right, Ok, You Win
TTITLE12=Lake Shore Drive Boogie
EXTD=
EXTT0=
EXTT1=
EXTT2=
EXTT3=
EXTT4=
EXTT5=
EXTT6=
EXTT7=
EXTT8=
EXTT9=
EXTT10=
EXTT11=
EXTT12=
PLAYORDER=
